<?xml version="1.0" encoding="utf-8"?>
<!-- Generator: Adobe Illustrator 16.0.0, SVG Export Plug-In . SVG Version: 6.00 Build 0)  -->
<!DOCTYPE svg PUBLIC "-//W3C//DTD SVG 1.1//EN" "http://www.w3.org/Graphics/SVG/1.1/DTD/svg11.dtd">
<svg version="1.1" id="Layer_1" xmlns="http://www.w3.org/2000/svg" xmlns:xlink="http://www.w3.org/1999/xlink" x="0px" y="0px"
	 width="495.769px" height="575.719px" viewBox="99.104 25.364 495.769 575.719"
	 enable-background="new 99.104 25.364 495.769 575.719" xml:space="preserve">
<path d="M549.205,373.859c-2.593-1.06-4.061-1.66-5.528-2.259c-0.336,0.255-0.673,0.51-1.01,0.765
	c0.84,1.229,1.505,2.636,2.547,3.659c5.576,5.475,11.272,10.827,16.861,16.289c1.147,1.122,2.017,2.532,3.772,4.783
	c-2.698-0.25-4.519-0.904-5.939-0.415c-1.496,0.517-2.613,2.128-3.777,3.156c16.9,24.875,12.019,48.427-2.933,72.077
	c1.932,0.349,3.648,1.037,5.289,0.883c4.794-0.452,6.37,2.678,7.169,6.331c0.986,4.519,1.713,9.119,2.113,13.722
	c0.12,1.386-0.938,3.136-1.938,4.309c-3.869,4.539-7.934,8.912-11.996,13.427c6.178,2.414,10.564-0.438,14.738-5.662
	c1.273,15.65,2.464,30.252,3.705,45.484c4.961,0,9.726,0.133,14.47-0.119c0.866-0.046,2.041-1.521,2.394-2.566
	c0.911-2.694,1.331-5.553,2.192-8.267c0.248-0.783,1.255-1.444,2.068-1.858c0.256-0.131,1.489,0.747,1.471,1.123
	c-0.293,5.938-0.274,11.951-1.36,17.756c-0.37,1.983-3.379,3.783-5.539,5.068c-7.691,4.583-15.714,8.637-23.258,13.444
	c-3.921,2.499-5.536,6.871-6.105,11.615c-0.604,5.032-1.686,10.009-2.466,14.479c-3.853-3.474-7.853-6.824-11.562-10.47
	c-21.074-20.705-45.652-36.694-70.339-52.562c-25.42-16.338-51.523-31.81-73.856-52.392c-10.128-9.333-18.949-20.083-28.354-30.198
	c-0.703-0.756-1.337-1.579-2.551-3.024c-7.94,8.11-16.025,15.729-23.375,23.998c-22.308,25.098-56.568,25.753-82.077,7.873
	c-18.93-13.268-33.321-30.685-46.373-49.396c-4.713-6.758-9.209-13.668-14.185-21.074c-1.214,3.239-2.22,5.919-3.22,8.586
	c-4.596-3.634-8.726-7.377-13.327-10.401c-4.505-2.963-9.337-5.6-15.199-2.812c-0.807,0.383-2.853-1.051-3.899-2.078
	c-13.534-13.293-24.091-28.819-33.255-45.301c-19.155-34.451-31.131-71.22-34.933-110.535c-0.462-4.783-0.522-9.614-0.535-14.424
	c-0.003-1.014,1.019-2.031,1.569-3.046c0.51,1.067,1.31,2.088,1.481,3.207c0.909,5.918,1.49,11.891,2.553,17.778
	c0.397,2.202,1.787,4.224,3.441,6.039c0.675-10.426,0.86-20.911,2.104-31.268c7.761-64.593,31.744-121.58,79.935-166.723
	c14.331-13.424,30.249-24.772,49.799-29.83c14.141-3.657,28.392-2.216,42.625-1.195c13.695,0.981,26.998,0.038,39.658-5.971
	c1.78-0.844,4.41-0.465,6.501,0.001c36.324,8.109,65.466,27.863,89.62,55.6c20.208,23.203,35.841,49.406,49.077,76.988
	c16.059,33.463,31.338,67.299,46.965,100.968c1.014,2.181,1.871,4.49,3.223,6.448c7.459,10.813,9.722,22.758,9.386,35.764
	c-0.625,24.183,7.557,46.032,19.348,66.732C547.203,369.793,547.895,371.291,549.205,373.859z M183.973,260.72
	c0,33.05-0.018,65.53,0.078,98.009c0.003,1.08,1.035,2.257,1.804,3.216c2.979,3.71,6.99,6.918,8.898,11.098
	c5.356,11.728,10.337,23.68,14.585,35.851c6.36,18.223,14.884,34.886,30.374,47.058c13.474,10.588,27.135,20.938,40.783,31.303
	c0.959,0.729,2.535,1.121,3.741,0.977c9.968-1.202,20.2-1.509,29.817-4.086c27.658-7.419,46.456-26.062,60.285-50.329
	c11.184-19.626,18.02-40.935,23.814-62.608c6.399-23.93,10.686-48.171,8.88-73.074c-0.417-5.752-2.133-11.409-3.251-17.11
	c-0.528,0.062-1.058,0.124-1.585,0.186c-0.589,2.277-0.98,4.632-1.832,6.807c-0.63,1.611-1.858,2.988-2.82,4.47
	c-0.661-1.611-2-3.281-1.868-4.824c0.646-7.544-4.125-11.067-10.351-12.409c-1.763-0.379-3.562-0.708-5.235-1.346
	c-2.586-0.983-4.313-0.151-6.435,1.548c-7.729,6.193-15.449,12.469-23.706,17.904c-5.758,3.789-12.388,6.253-18.952,9.468
	c-0.806-6.742-0.791-6.721,3.371-9.669c4.786-3.391,9.302-7.241,14.363-10.144c8.821-5.061,17.841-9.83,27.033-14.176
	c5.913-2.796,12.003-2.899,17.894,1.177c3.438,2.381,7.521,3.83,11.408,5.744c1.385-4.488,0.32-6.963-3.801-7.392
	c-2.523-0.263-3.468-1.627-4.041-3.959c-1.379-5.61-3.041-11.15-4.561-16.612c-5.119,3.275-9.717,6.697-14.727,9.332
	c-17.275,9.085-36.202,11.901-55.299,13.234c-32.667,2.28-65.21-0.069-97.669-3.885c-9.221-1.083-18.455-2.06-28.042-3.125
	c-0.729,3.652-1.196,7.067-2.141,10.343c-0.591,2.05-1.902,3.892-2.89,5.828c-0.571-2.081-1.538-4.145-1.635-6.247
	C190.037,268.38,189.894,263.621,183.973,260.72z M408.776,181.687c-1.062-0.587-2.072-1.192-3.123-1.716
	c-0.903-0.45-1.853-0.81-2.117-0.925c-6.894,13.053-13.633,25.815-20.331,38.5c-3.875-1.205-6.821-2.12-8.804-2.736
	c-2.5,4.264-4.692,7.87-6.722,11.567c-0.433,0.79-0.559,1.99-0.316,2.859c0.658,2.381,1.587,4.687,2.271,6.63
	C391.416,223.956,404.747,206.29,408.776,181.687z M461.296,342.048c0.886,4.166,1.613,7.591,2.342,11.014
	c4.312-4.679,9.166-8.53,12.085-13.516c2.908-4.966,3.874-11.07,5.965-17.517c-7.56,2.597-13.76,4.728-20.58,7.07
	c-0.931-7.936-5.727-10.883-12.431-12.282c3.041,10.099,6.024,20.007,9.188,30.509C459.137,345.368,459.991,344.056,461.296,342.048
	z M226.068,90.963c-0.493-0.394-0.985-0.789-1.478-1.183c-1.14,1.158-2.484,2.177-3.389,3.497
	c-14.396,20.995-30.704,40.388-48.878,58.198c-5.067,4.966-5.382,6.515-1.504,11.827c3.164-3.777,6.251-7.795,9.68-11.499
	c13.786-14.887,27.329-29.968,38.131-47.244C221.364,100.187,223.603,95.504,226.068,90.963z M333.024,256.926
	c0.99-2.897,1.229-4.633,2.105-5.943c1.914-2.861,1.052-4.718-0.813-7.436c-2.558-3.724-4.23-8.167-5.668-12.505
	c-1.015-3.057-1.007-6.453-1.444-9.623c-6.22-1.089-6.302-1.019-7.574,4.382c-0.592,2.51-1.3,4.992-1.986,7.609
	c-3.374-2.146-6.186-3.933-9.734-6.19c0,3.113,0,5.049,0,6.985c0.001,8.613,0.242,8.84,8.686,8.648
	c4.513-0.103,8.407,0.286,10.174,5.784C327.684,251.49,330.52,253.727,333.024,256.926z M329.021,64.093
	c-2.351,0-4.054-0.26-5.619,0.092c-1.044,0.233-2.652,1.286-2.705,2.062c-0.337,4.875-0.401,9.776-0.322,14.665
	c0.016,1.003,0.797,2.581,1.605,2.885c3.754,1.417,7.598,2.653,11.494,3.605c2.369,0.58,3.869-0.512,4.266-3.239
	c0.558-3.837,1.604-7.602,2.223-11.433c0.165-1.017-0.123-2.487-0.791-3.194C336.248,66.442,333.684,62.389,329.021,64.093z
	 M236.417,243.891c2.788-0.412,5.316-0.126,7.065-1.159c7.398-4.37,15.326-5.483,23.748-5.487c3.607-0.001,7.214-1.705,10.82-2.635
	c0.22-0.708,0.441-1.418,0.661-2.127c-4.007-4.103-8.014-8.205-11.81-12.091c-6.818,6.253-12.402,11.373-17.476,16.026
	c-4.65-1.679-8.712-3.145-13.008-4.697C236.417,235.639,236.417,239.324,236.417,243.891z M517.235,384.373
	c-0.269,2.291-0.473,4.032-0.712,6.08c-3.03-0.216-5.824-0.416-8.618-0.615c-0.27,0.569-0.536,1.138-0.806,1.707
	c3.33,2.455,6.604,6.879,10.004,6.979c8.622,0.253,11.581,4.858,12.953,12.07c0.276,1.456,1.208,2.799,1.417,4.253
	c0.688,4.786,3.388,5.783,7.932,4.273c0-3.477,0.058-7.033-0.045-10.586c-0.023-0.795-0.471-1.679-0.963-2.342
	c-2.587-3.469-5.296-6.845-7.876-10.316C527.036,391.188,523.638,386.433,517.235,384.373z M252.585,62.832
	c-1.102,6.245,3.518,10.855,5.853,16.218c0.209,0.481,1.552,0.833,2.243,0.68c3.801-0.846,7.852-1.295,11.24-3.018
	c2.488-1.264,5.688-4.205,5.788-6.519c0.299-6.947-7.562-14.187-16.046-14.98c3.438,6.248,6.544,11.894,9.651,17.539
	c-0.599,0.497-1.198,0.994-1.798,1.492c-2.189-1.496-4.378-2.991-6.567-4.486c0.554-0.363,1.107-0.727,1.661-1.09
	C260.675,66.757,256.741,64.849,252.585,62.832z M285.428,225.635c-0.42,0.847-0.701,1.339-0.914,1.859
	c-2.491,6.102,1.505,11.309,2.461,16.925c0.332,1.945,1.809,3.696,2.763,5.536c0.818-1.834,1.646-3.665,2.443-5.508
	c0.114-0.264,0.07-0.592,0.119-0.889c0.784-4.768,4.665-6.895,8.973-4.962c0.864,0.387,1.812,0.586,4.103,1.306
	c-1.116-5.109-1.848-9.271-2.967-13.326c-0.887-3.214-3.209-3.171-5.648-1.66c-2.766,1.714-5.46,3.544-8.367,5.441
	C287.329,228.662,286.48,227.312,285.428,225.635z M448.261,363.45c-2.782,1.387-4.295,2.322-5.931,2.921
	c-4.17,1.528-8.319,3.556-12.63,4.045c-1.893,0.215-4.146-2.837-6.259-4.376c-0.154-0.113-0.485,0.017-0.953,0.049
	c0.992,4.813,1.975,9.574,3.021,14.649c5.789,0,11.169,0.097,16.54-0.082c1.058-0.035,2.788-0.953,2.999-1.773
	C446.223,374.301,447.024,369.625,448.261,363.45z M518.47,464.549c7.997,2.319,15.893,4.608,24.209,7.021
	c0-2.298,0.156-3.948-0.048-5.557c-0.17-1.345-0.4-2.955-1.234-3.887c-2.017-2.257-4.386-4.203-6.642-6.241
	c-2.438-2.206-4.911-4.374-6.896-6.139C524.292,455.369,521.233,460.19,518.47,464.549z M180.662,333.876
	c-3.125-12.06-8.444-23.102-15.401-33.388C165.492,313.887,162.859,328.612,180.662,333.876z M339.955,54.824
	c-3.126-2.024-6.85-3.257-8.647-5.833c-4.461-6.395-10.271-3.846-16.172-3.455c3.602,4.718,7.248,9.278,11.708,12.812
	C332.47,62.806,336.737,61.342,339.955,54.824z M418.104,180.938c-3.181-14.693-8.69-31.825-15.229-33.526
	C405.755,159.179,409.091,170.585,418.104,180.938z M554.798,566.73c0.596-0.177,1.191-0.353,1.788-0.525
	c-2.957-10.578-3.471-22.093-12.953-30.173C547.354,546.265,551.076,556.498,554.798,566.73z M232.759,239.816
	c0-4.503,0.085-8.704-0.065-12.895c-0.034-0.957-0.882-1.884-1.355-2.826c-0.829,0.848-2.047,1.556-2.409,2.571
	c-0.853,2.392-1.316,4.926-1.904,7.41C226.057,238.183,227.598,239.882,232.759,239.816z M341.402,256.14
	c3.613-0.428,11.433-11.46,11.022-15.555C347.674,241.449,341.821,249.707,341.402,256.14z M419.06,127.219
	c-1.394,8.388,0.539,14.614,5.615,20.306C426.909,139.663,422.795,134.06,419.06,127.219z M406.96,129.753
	c-0.297,0.273-0.595,0.546-0.891,0.819c0.854,4.241,1.644,8.498,2.624,12.709c0.188,0.811,1.047,1.578,1.789,2.08
	c0.224,0.152,1.584-0.639,1.599-1.03c0.142-3.593,0.632-7.312-0.126-10.739C411.608,132.021,408.704,131.015,406.96,129.753z
	 M222.605,236.876c0-2.232,0-3.958,0-5.737c-3.299,0-6.314,0-9.532,0c0.103,2.17,0.185,3.891,0.273,5.737
	C216.633,236.876,219.426,236.876,222.605,236.876z M232.82,181.72c0,5.198-0.072,9.519,0.068,13.831
	c0.024,0.744,0.942,1.46,1.447,2.189c0.521-0.58,1.349-1.086,1.51-1.752c0.881-3.665,1.598-7.369,2.46-11.481
	C237.04,183.863,235.354,183.006,232.82,181.72z M415.361,338.041c0-3.717,0.093-6.994-0.067-10.258
	c-0.038-0.78-0.918-1.519-1.412-2.276c-0.656,0.491-1.726,0.866-1.901,1.494c-0.998,3.528-1.782,7.118-2.725,11.04
	C411.536,338.041,413.123,338.041,415.361,338.041z M365.843,243.981c1.926-6.167-0.667-9.248-4.989-11.48
	C362.474,236.138,360.916,241.217,365.843,243.981z M439.288,478.486c-1.252,6.812-0.425,7.825,8.563,10.668
	C445.196,485.847,442.541,482.538,439.288,478.486z M196.586,224.35c-2.22,0-4.061,0-5.943,0c0,2.084,0,3.814,0,5.835
	c2.07,0,3.898,0,5.943,0C196.586,228.168,196.586,226.429,196.586,224.35z M421.831,303.204c-2.154,6.612-4.053,12.444-6.198,19.03
	C418.807,320.674,423.153,306.703,421.831,303.204z M434.414,471.861c0.938,1.513,1.548,2.494,2.158,3.475
	c0.591-1.108,1.574-2.188,1.658-3.333c0.073-1.011-0.854-2.095-1.341-3.146C436.12,469.793,435.349,470.728,434.414,471.861z
	 M174.606,243.356c-0.867-1.129-1.556-2.027-2.244-2.924c-0.534,1.005-1.542,2.041-1.48,3.008c0.073,1.125,1.083,2.189,1.687,3.279
	C173.176,245.717,173.782,244.716,174.606,243.356z M233.414,86.812c-0.874-1.175-1.559-2.096-2.244-3.018
	c-0.565,1.157-1.536,2.303-1.567,3.475c-0.024,0.923,1.108,1.877,1.727,2.818C231.953,89.108,232.576,88.13,233.414,86.812z
	 M138.753,233.993c-0.898-1.29-1.559-2.237-2.22-3.185c-0.568,1.004-1.571,2.002-1.583,3.012c-0.013,1.049,0.933,2.109,1.458,3.165
	C137.11,236.09,137.812,235.195,138.753,233.993z"/>
<path fill="#FFFFFF" d="M183.973,260.72c5.921,2.901,6.064,7.66,6.29,12.555c0.097,2.102,1.063,4.166,1.635,6.247
	c0.988-1.936,2.299-3.778,2.89-5.828c0.945-3.276,1.413-6.691,2.141-10.343c9.587,1.065,18.821,2.042,28.042,3.125
	c32.459,3.815,65.002,6.165,97.669,3.885c19.097-1.333,38.022-4.149,55.299-13.234c5.01-2.635,9.606-6.057,14.727-9.332
	c1.52,5.462,3.182,11.002,4.561,16.612c0.573,2.332,1.518,3.696,4.041,3.959c4.121,0.429,5.186,2.904,3.801,7.392
	c-3.887-1.914-7.971-3.363-11.408-5.744c-5.891-4.076-11.979-3.973-17.894-1.177c-9.192,4.347-18.212,9.116-27.033,14.176
	c-5.062,2.903-9.577,6.753-14.363,10.144c-4.162,2.948-4.177,2.927-3.371,9.669c6.565-3.215,13.194-5.68,18.952-9.468
	c8.257-5.435,15.978-11.71,23.706-17.904c2.12-1.7,3.849-2.532,6.435-1.548c1.674,0.638,3.475,0.967,5.235,1.346
	c6.226,1.342,10.997,4.864,10.351,12.409c-0.132,1.543,1.207,3.212,1.868,4.824c0.962-1.482,2.19-2.859,2.82-4.47
	c0.852-2.174,1.243-4.53,1.832-6.807c0.527-0.062,1.057-0.125,1.585-0.186c1.118,5.701,2.834,11.358,3.251,17.11
	c1.806,24.903-2.479,49.145-8.88,73.074c-5.796,21.674-12.631,42.982-23.814,62.608c-13.829,24.268-32.627,42.91-60.285,50.329
	c-9.617,2.577-19.849,2.884-29.817,4.086c-1.206,0.146-2.782-0.247-3.741-0.977c-13.647-10.365-27.309-20.715-40.783-31.303
	c-15.49-12.172-24.014-28.835-30.374-47.058c-4.248-12.171-9.229-24.123-14.585-35.851c-1.908-4.18-5.92-7.388-8.898-11.098
	c-0.769-0.958-1.801-2.136-1.804-3.216C183.955,326.25,183.973,293.77,183.973,260.72z M340.562,422.887
	c-4.733-1.472-9.062-3.126-13.531-4.151c-18.106-4.154-36.502-2.793-54.811-2.295c-4.215,0.114-8.51,1.681-12.53,3.206
	c-3.081,1.171-4.648,3.234-1.991,6.918c5.449,7.552,10.389,15.47,15.619,23.183c0.808,1.192,1.854,2.545,3.105,3.067
	c17.789,7.408,34.82,6.363,50.832-4.903c5.009-3.524,6.155-7.039,4.361-12.868c-0.438-1.42-0.621-2.918-1.069-5.098
	c2.782,1.142,4.646,1.904,6.736,2.764C338.394,429.388,339.375,426.444,340.562,422.887z M253.881,320.328
	c2.741,2.238,5.017,6.981,10.664,4.305c-0.559-0.684-0.958-1.273-1.453-1.763c-4.958-4.904-11.331-5.732-17.851-6.302
	c-8.335-0.728-17.283,0.21-24.436-4.861c-5.46-3.872-10.84-2.792-16.861-2.027c1.607,2.05,3.421,4.124,5.613,4.663
	c3.107,0.763,3.723,2.282,3.545,5.052c-0.189,2.944-0.042,5.91-0.042,8.997c4.023,0.427,7.48,0.621,10.876,1.187
	c9.388,1.562,18.308,0.794,26.235-4.996C251.512,323.602,252.423,322.032,253.881,320.328z M268.398,383.058
	c6.677,4.159,12.711,7.907,18.733,11.674c1.4,0.876,3,1.598,4.087,2.779c2.681,2.909,5.675,2.659,9.054,1.669
	c6.313-1.849,12.689-3.485,19.028-5.25c0.69-0.192,1.524-0.485,1.924-1.011c4.044-5.327,3.057-11.381,2.187-17.312
	c-0.676-4.612-4.781-5.635-8.876-7.729c0.443,2.248,0.778,3.821,1.062,5.403c1.374,7.63-0.729,11.649-7.819,14.691
	c-4.267,1.83-8.59,3.521-13.147,5.38c-4.736-4.976-9.587-10.072-14.571-15.309c1.934-4.242,1.934-4.242-3.193-7.483
	C274.143,374.577,271.397,378.63,268.398,383.058z M344.579,321.918c-0.195,0.542-0.39,1.082-0.585,1.623
	c2.803,1.43,6.01,4.547,8.336,3.989c8.709-2.089,17.15-5.323,25.639-8.28c1.316-0.458,2.76-1.471,3.443-2.638
	c1.54-2.623,2.641-5.502,4.051-8.558c-1.142-4.567-5.042-5.07-9.538-5.353c-1.732,7.512-7.736,9.011-14.015,9.83
	c-10.788,1.407-21.936,0.852-32,6.034c-0.881,0.453-1.605,1.21-2.403,1.826c1.04,0.435,2.112,1.305,3.116,1.232
	c5.773-0.416,11.53-1.055,17.294-1.618c0.057,0.271,0.113,0.541,0.169,0.811C346.917,321.184,345.748,321.552,344.579,321.918z
	 M264.722,308.481c-1.247-15.894-43.916-40.127-60.763-28.097c7.878,3.202,15.296,6.35,22.813,9.241
	c10.53,4.049,21.137,8.013,29.166,16.353C258.626,308.77,261.301,309.356,264.722,308.481z"/>
<path fill="#FFFFFF" d="M408.776,181.687c-4.029,24.603-17.36,42.269-39.143,54.179c-0.685-1.943-1.612-4.249-2.271-6.63
	c-0.241-0.87-0.115-2.07,0.316-2.859c2.028-3.697,4.222-7.303,6.722-11.567c1.981,0.616,4.929,1.531,8.804,2.736
	c6.698-12.685,13.438-25.447,20.331-38.5c0.266,0.115,1.214,0.475,2.117,0.925C406.704,180.495,407.716,181.1,408.776,181.687z"/>
<path fill="#FFFFFF" d="M461.296,342.048c-1.305,2.007-2.159,3.32-3.433,5.278c-3.162-10.502-6.146-20.41-9.188-30.509
	c6.704,1.399,11.5,4.346,12.43,12.282c6.821-2.343,13.021-4.474,20.581-7.07c-2.091,6.447-3.057,12.551-5.965,17.517
	c-2.919,4.986-7.773,8.837-12.085,13.516C462.909,349.639,462.182,346.214,461.296,342.048z"/>
<path fill="#FFFFFF" d="M226.068,90.963c-2.465,4.541-4.704,9.224-7.438,13.597c-10.802,17.275-24.345,32.357-38.131,47.244
	c-3.429,3.703-6.516,7.721-9.68,11.499c-3.878-5.312-3.563-6.861,1.504-11.827c18.175-17.81,34.482-37.203,48.878-58.198
	c0.905-1.32,2.249-2.339,3.389-3.497C225.083,90.174,225.575,90.569,226.068,90.963z"/>
<path fill="#FFFFFF" d="M333.024,256.926c-2.506-3.199-5.342-5.436-6.258-8.288c-1.767-5.499-5.661-5.887-10.174-5.784
	c-8.442,0.191-8.685-0.035-8.686-8.648c0-1.936,0-3.873,0-6.985c3.55,2.258,6.36,4.044,9.734,6.19
	c0.688-2.617,1.396-5.1,1.986-7.609c1.272-5.401,1.354-5.471,7.574-4.382c0.438,3.17,0.431,6.565,1.443,9.623
	c1.438,4.337,3.111,8.781,5.669,12.505c1.865,2.718,2.729,4.575,0.813,7.436C334.255,252.292,334.016,254.028,333.024,256.926z"/>
<path fill="#FFFFFF" d="M329.021,64.093c4.661-1.705,7.227,2.349,10.149,5.443c0.668,0.707,0.956,2.177,0.791,3.194
	c-0.619,3.831-1.665,7.596-2.223,11.433c-0.396,2.727-1.896,3.819-4.266,3.239c-3.896-0.953-7.74-2.188-11.495-3.605
	c-0.809-0.305-1.59-1.882-1.604-2.885c-0.079-4.889-0.015-9.79,0.322-14.665c0.053-0.776,1.661-1.829,2.705-2.062
	C324.969,63.833,326.672,64.093,329.021,64.093z"/>
<path fill="#FFFFFF" d="M236.417,243.891c0-4.567,0-8.252,0-12.169c4.296,1.552,8.358,3.018,13.008,4.697
	c5.074-4.653,10.658-9.773,17.476-16.026c3.796,3.886,7.803,7.988,11.81,12.091c-0.22,0.709-0.441,1.418-0.661,2.127
	c-3.606,0.93-7.213,2.633-10.82,2.635c-8.422,0.004-16.35,1.117-23.748,5.487C241.733,243.765,239.206,243.479,236.417,243.891z"/>
<path fill="#FFFFFF" d="M517.235,384.373c6.401,2.06,9.801,6.816,13.286,11.504c2.58,3.473,5.289,6.849,7.875,10.316
	c0.493,0.663,0.939,1.547,0.964,2.342c0.103,3.553,0.045,7.109,0.045,10.586c-4.544,1.51-7.243,0.513-7.932-4.273
	c-0.209-1.454-1.141-2.797-1.417-4.253c-1.372-7.212-4.331-11.817-12.954-12.07c-3.398-0.101-6.673-4.524-10.003-6.979
	c0.27-0.568,0.536-1.138,0.806-1.707c2.794,0.199,5.588,0.398,8.618,0.615C516.764,388.405,516.968,386.663,517.235,384.373z"/>
<path fill="#FFFFFF" d="M252.585,62.832c4.155,2.017,8.09,3.925,12.024,5.834c-0.554,0.363-1.107,0.727-1.661,1.09
	c2.189,1.495,4.378,2.99,6.567,4.486c0.6-0.498,1.199-0.995,1.798-1.492c-3.106-5.645-6.212-11.291-9.651-17.539
	c8.483,0.793,16.345,8.033,16.046,14.98c-0.1,2.314-3.299,5.254-5.788,6.519c-3.388,1.723-7.439,2.172-11.24,3.018
	c-0.69,0.153-2.034-0.198-2.243-0.68C256.103,73.688,251.484,69.077,252.585,62.832z"/>
<path fill="#FFFFFF" d="M285.428,225.635c1.052,1.676,1.901,3.027,2.966,4.722c2.907-1.897,5.601-3.727,8.367-5.441
	c2.438-1.511,4.761-1.554,5.648,1.66c1.12,4.055,1.851,8.216,2.967,13.326c-2.29-0.719-3.239-0.918-4.103-1.306
	c-4.308-1.933-8.189,0.194-8.973,4.962c-0.049,0.296-0.005,0.625-0.119,0.889c-0.798,1.843-1.625,3.674-2.443,5.508
	c-0.954-1.839-2.431-3.59-2.763-5.536c-0.957-5.616-4.952-10.823-2.461-16.925C284.727,226.974,285.008,226.482,285.428,225.635z"/>
<path fill="#FFFFFF" d="M448.261,363.45c-1.235,6.175-2.038,10.851-3.213,15.433c-0.211,0.821-1.941,1.738-2.999,1.773
	c-5.371,0.179-10.751,0.082-16.54,0.082c-1.046-5.076-2.028-9.836-3.021-14.649c0.468-0.033,0.799-0.163,0.953-0.049
	c2.111,1.539,4.366,4.591,6.259,4.376c4.311-0.489,8.46-2.518,12.63-4.045C443.966,365.771,445.479,364.837,448.261,363.45z"/>
<path fill="#FFFFFF" d="M518.47,464.549c2.765-4.357,5.822-9.18,9.389-14.803c1.985,1.765,4.459,3.933,6.896,6.139
	c2.256,2.038,4.625,3.984,6.642,6.241c0.834,0.932,1.064,2.542,1.234,3.887c0.204,1.607,0.048,3.259,0.048,5.557
	C534.361,469.157,526.467,466.868,518.47,464.549z"/>
<path fill="#FFFFFF" d="M180.662,333.876c-17.803-5.264-15.169-19.989-15.401-33.388
	C172.218,310.774,177.537,321.816,180.662,333.876z"/>
<path fill="#FFFFFF" d="M339.955,54.824c-3.218,6.518-7.485,7.982-13.111,3.523c-4.46-3.534-8.106-8.094-11.708-12.812
	c5.901-0.392,11.711-2.94,16.172,3.455C333.105,51.567,336.829,52.8,339.955,54.824z"/>
<path fill="#FFFFFF" d="M418.104,180.938c-9.013-10.353-12.349-21.76-15.229-33.526
	C409.412,149.113,414.923,166.245,418.104,180.938z"/>
<path fill="#FFFFFF" d="M554.798,566.73c-3.722-10.232-7.442-20.467-11.165-30.698c9.482,8.08,9.996,19.595,12.953,30.173
	C555.989,566.379,555.394,566.555,554.798,566.73z"/>
<path fill="#FFFFFF" d="M232.759,239.816c-5.161,0.065-6.703-1.633-5.733-5.74c0.587-2.484,1.051-5.018,1.904-7.41
	c0.362-1.015,1.58-1.723,2.409-2.571c0.473,0.942,1.322,1.869,1.355,2.826C232.845,231.113,232.759,235.313,232.759,239.816z"/>
<path fill="#FFFFFF" d="M341.402,256.14c0.419-6.433,6.271-14.691,11.022-15.555C352.835,244.68,345.017,255.712,341.402,256.14z"/>
<path fill="#FFFFFF" d="M419.06,127.219c3.735,6.84,7.851,12.444,5.615,20.306C419.599,141.833,417.666,135.607,419.06,127.219z"/>
<path fill="#FFFFFF" d="M406.96,129.753c1.744,1.262,4.648,2.267,4.995,3.838c0.758,3.428,0.268,7.146,0.126,10.739
	c-0.015,0.391-1.375,1.182-1.599,1.03c-0.742-0.502-1.601-1.27-1.789-2.08c-0.98-4.211-1.77-8.468-2.624-12.709
	C406.365,130.299,406.663,130.027,406.96,129.753z"/>
<path fill="#FFFFFF" d="M222.605,236.876c-3.179,0-5.973,0-9.259,0c-0.088-1.846-0.17-3.566-0.273-5.737c3.218,0,6.233,0,9.532,0
	C222.605,232.918,222.605,234.644,222.605,236.876z"/>
<path fill="#FFFFFF" d="M232.82,181.72c2.533,1.286,4.219,2.144,5.485,2.786c-0.862,4.113-1.58,7.817-2.46,11.481
	c-0.161,0.667-0.989,1.172-1.51,1.752c-0.505-0.729-1.423-1.445-1.447-2.189C232.749,191.237,232.82,186.918,232.82,181.72z"/>
<path fill="#FFFFFF" d="M415.361,338.041c-2.238,0-3.825,0-6.105,0c0.941-3.922,1.727-7.511,2.725-11.04
	c0.177-0.628,1.245-1.003,1.901-1.494c0.494,0.757,1.374,1.496,1.412,2.276C415.454,331.047,415.361,334.324,415.361,338.041z"/>
<path fill="#FFFFFF" d="M365.843,243.981c-4.927-2.764-3.369-7.843-4.989-11.48C365.176,234.733,367.769,237.814,365.843,243.981z"
	/>
<path fill="#FFFFFF" d="M439.288,478.486c3.253,4.052,5.908,7.359,8.563,10.668C438.863,486.312,438.036,485.298,439.288,478.486z"
	/>
<path fill="#FFFFFF" d="M196.586,224.35c0,2.08,0,3.819,0,5.835c-2.045,0-3.874,0-5.943,0c0-2.021,0-3.751,0-5.835
	C192.526,224.35,194.367,224.35,196.586,224.35z"/>
<path fill="#FFFFFF" d="M421.831,303.204c1.322,3.5-3.024,17.47-6.198,19.03C417.778,315.647,419.677,309.815,421.831,303.204z"/>
<path fill="#FFFFFF" d="M434.414,471.861c0.935-1.135,1.706-2.068,2.477-3.004c0.486,1.051,1.414,2.135,1.341,3.146
	c-0.085,1.146-1.067,2.225-1.658,3.333C435.962,474.355,435.353,473.374,434.414,471.861z"/>
<path fill="#FFFFFF" d="M174.606,243.356c-0.824,1.36-1.431,2.361-2.038,3.363c-0.604-1.09-1.614-2.154-1.687-3.279
	c-0.062-0.967,0.946-2.002,1.48-3.008C173.051,241.329,173.74,242.227,174.606,243.356z"/>
<path fill="#FFFFFF" d="M233.414,86.812c-0.838,1.318-1.461,2.297-2.084,3.275c-0.619-0.94-1.751-1.895-1.727-2.818
	c0.031-1.172,1.001-2.318,1.567-3.475C231.855,84.715,232.54,85.636,233.414,86.812z"/>
<path fill="#FFFFFF" d="M138.753,233.993c-0.942,1.202-1.644,2.097-2.345,2.992c-0.526-1.055-1.472-2.116-1.458-3.165
	c0.013-1.01,1.016-2.008,1.583-3.012C137.194,231.755,137.855,232.703,138.753,233.993z"/>
<path d="M340.562,422.887c-1.188,3.559-2.17,6.501-3.278,9.821c-2.092-0.858-3.954-1.622-6.736-2.764
	c0.448,2.18,0.632,3.678,1.069,5.098c1.794,5.829,0.646,9.344-4.361,12.868c-16.012,11.268-33.043,12.312-50.832,4.902
	c-1.251-0.521-2.297-1.875-3.105-3.066c-5.229-7.713-10.17-15.631-15.619-23.184c-2.657-3.683-1.09-5.746,1.991-6.916
	c4.02-1.526,8.315-3.093,12.53-3.207c18.308-0.498,36.704-1.859,54.811,2.295C331.502,419.761,335.829,421.415,340.562,422.887z
	 M280.581,426.798c11.394,7.53,24.018,6.168,36.728,6.113c0-2.354,0-4.185,0-6.113C304.856,426.798,292.718,426.798,280.581,426.798
	z M314.019,439.72c-5.441,0.725-10.43,1.876-15.428,1.912c-4.921,0.037-9.851-1.055-14.776-1.651
	c9.254,6.798,19.694,5.944,30.204,5.806C314.019,443.512,314.019,441.748,314.019,439.72z"/>
<path d="M253.881,320.328c-1.458,1.704-2.369,3.273-3.71,4.253c-7.928,5.79-16.848,6.558-26.235,4.996
	c-3.396-0.566-6.854-0.76-10.876-1.187c0-3.087-0.146-6.053,0.042-8.997c0.178-2.77-0.438-4.289-3.545-5.052
	c-2.191-0.539-4.005-2.613-5.613-4.663c6.021-0.765,11.4-1.845,16.861,2.027c7.153,5.071,16.101,4.133,24.436,4.861
	c6.521,0.569,12.893,1.398,17.851,6.302c0.496,0.49,0.895,1.079,1.453,1.763C258.897,327.309,256.622,322.566,253.881,320.328z"/>
<path d="M268.398,383.058c3-4.428,5.745-8.481,8.466-12.498c5.127,3.241,5.127,3.241,3.193,7.483
	c4.984,5.237,9.835,10.333,14.571,15.309c4.557-1.859,8.882-3.551,13.147-5.38c7.09-3.042,9.193-7.061,7.819-14.691
	c-0.284-1.582-0.618-3.156-1.062-5.403c4.095,2.094,8.2,3.117,8.876,7.729c0.87,5.932,1.857,11.986-2.187,17.312
	c-0.398,0.526-1.232,0.819-1.924,1.011c-6.339,1.766-12.715,3.402-19.028,5.25c-3.379,0.99-6.373,1.24-9.054-1.669
	c-1.088-1.181-2.687-1.902-4.087-2.779C281.109,390.964,275.075,387.216,268.398,383.058z"/>
<path d="M344.579,321.918c1.169-0.367,2.338-0.734,3.507-1.102c-0.056-0.27-0.112-0.541-0.169-0.811
	c-5.764,0.563-11.521,1.202-17.294,1.618c-1.004,0.072-2.076-0.798-3.116-1.232c0.798-0.616,1.522-1.373,2.403-1.826
	c10.064-5.183,21.212-4.627,32-6.034c6.277-0.819,12.281-2.317,14.015-9.83c4.496,0.282,8.396,0.786,9.538,5.353
	c-1.41,3.055-2.511,5.935-4.051,8.558c-0.686,1.167-2.127,2.18-3.443,2.638c-8.487,2.957-16.93,6.191-25.639,8.28
	c-2.326,0.558-5.533-2.559-8.336-3.989C344.189,323,344.384,322.46,344.579,321.918z"/>
<path d="M264.722,308.481c-3.421,0.875-6.096,0.289-8.784-2.503c-8.029-8.34-18.636-12.303-29.166-16.353
	c-7.517-2.891-14.936-6.039-22.813-9.241C220.806,268.354,263.475,292.587,264.722,308.481z"/>
<path fill="#FFFFFF" d="M280.581,426.798c12.137,0,24.275,0,36.728,0c0,1.93,0,3.761,0,6.113
	C304.599,432.966,291.975,434.328,280.581,426.798z"/>
<path fill="#FFFFFF" d="M314.019,439.72c0,2.028,0,3.792,0,6.065c-10.51,0.14-20.95,0.992-30.204-5.807
	c4.926,0.599,9.855,1.689,14.776,1.652C303.588,441.596,308.576,440.443,314.019,439.72z"/>
</svg>
